<svg width="512" height="512" viewBox="0 0 512 512" fill="none" xmlns="http://www.w3.org/2000/svg"><path d="M512 0H0v512h512z" fill="#000"/><path d="M299.344 184h-86.688q-2.763 0-4.759 1.989-1.897 1.889-1.897 4.739v130.644q0 2.75 1.897 4.64 1.996 1.988 4.759 1.988h8.851q2.863 0 4.759-1.988 1.997-1.89 1.997-4.64V212.833q0-2.75 1.897-4.64 2.03-1.988 4.758-1.988h42.263q2.73 0 4.626 1.988 2.03 1.89 2.03 4.64v25.453q0 2.718-2.03 4.739-1.897 1.889-4.626 1.889h-25.557q-2.862 0-4.759 1.989-1.996 1.889-1.996 4.739v8.816q0 2.75 1.996 4.739 1.897 1.889 4.759 1.889h25.557q2.73 0 4.626 2.021 2.03 1.89 2.03 4.607v47.658q0 2.75 1.897 4.64Q287.73 328 290.493 328h8.851q2.763 0 4.759-1.988 1.897-1.89 1.897-4.64V190.728q0-2.85-1.897-4.739-1.996-1.989-4.759-1.989" fill="#fff"/></svg>