<svg width="1512" height="597" viewBox="0 0 1512 597" fill="none" xmlns="http://www.w3.org/2000/svg">
    <path
        d="M-2.50002 0H1511.44C1511.99 0 1512.44 0.447726 1512.44 1.00001V594.935C1512.44 595.512 1511.99 595.97 1511.42 595.92C1502.91 595.188 1442.1 588.655 1361.5 546.5C1274.5 501 1146 511.5 1087.5 511.5C1029 511.5 1030.66 515.053 880 480C703.301 438.889 728.836 496.109 523 432.5C379 388 299 426 217.5 404C136.109 382.029 24.4587 340.353 -3.38865 287.213C-3.46314 287.071 -3.5 286.916 -3.5 286.756V1C-3.5 0.447715 -3.0523 0 -2.50002 0Z"
        fill="url(#paint0_linear_870_2)" />
    <path
        d="M-3.47495e-05 -1H1509C1509.55 -1 1510 -0.552285 1510 -5.96046e-08V592.788C1510 593.416 1509.45 593.893 1508.83 593.772C1496.87 591.43 1396.5 571.566 1357.5 557C1316 541.5 1186.5 527 1128 527C1069.5 527 1044.66 534.553 894 499.5C717.301 458.389 771.5 527 567 471.5C425.684 433.147 293 449.558 220 439.5C147.097 429.456 26.9781 368.845 -0.88975 315.654C-0.964226 315.511 -1 315.358 -1 315.198V0C-1 -0.552285 -0.552319 -1 -3.47495e-05 -1Z"
        fill="url(#paint1_linear_870_2)" />
    <path
        d="M35 3H1544C1544.55 3 1545 3.44771 1545 3.99999V595.247C1545 595.889 1544.45 596.374 1543.82 596.23C1531.16 593.313 1419.68 567.352 1381.5 548.5C1341 528.5 1225 521.5 1166.5 521.5C1108 521.5 1057.66 525.053 907 490C730 448.819 794.5 522 587.5 454C448.386 408.301 311.5 445.5 243.5 420.5C175.617 395.543 77.8379 362.614 34.2255 309.774C34.0782 309.596 34 309.374 34 309.142V4C34 3.44772 34.4477 3 35 3Z"
        fill="url(#paint2_linear_870_2)" />
    <defs>
        <linearGradient id="paint0_linear_870_2" x1="525.5" y1="-39.5" x2="804.099" y2="1020.34"
            gradientUnits="userSpaceOnUse">
            <stop offset="0.119792" stop-color="#7A97FF" />
            <stop offset="0.890625" stop-color="#8061FF" />
        </linearGradient>
        <linearGradient id="paint1_linear_870_2" x1="569.5" y1="-0.500084" x2="848.099" y2="1059.34"
            gradientUnits="userSpaceOnUse">
            <stop offset="0.119792" stop-color="#7A97FF" stop-opacity="0.2" />
            <stop offset="0.890625" stop-color="#8061FF" stop-opacity="0.2" />
        </linearGradient>
        <linearGradient id="paint2_linear_870_2" x1="604.5" y1="-27.0001" x2="883.099" y2="1032.84"
            gradientUnits="userSpaceOnUse">
            <stop offset="0.119792" stop-color="#7A97FF" stop-opacity="0.2" />
            <stop offset="0.890625" stop-color="#8061FF" stop-opacity="0.2" />
        </linearGradient>
    </defs>
</svg>